<svg xmlns="http://www.w3.org/2000/svg" width="253.434" height="253.434" viewBox="0 0 253.434 253.434">
  <defs>
    <style>
      .cls-1 {
        fill: #a8dadc;
      }
    </style>
  </defs>
  <g id="Group_247" data-name="Group 247" transform="translate(253.434 253.434) rotate(180)">
    <g id="Group_238" data-name="Group 238" transform="translate(0 168.956)">
      <g id="Group_234" data-name="Group 234" transform="translate(0 68.562)">
        <ellipse id="Ellipse_3" data-name="Ellipse 3" class="cls-1" cx="8.57" cy="7.958" rx="8.57" ry="7.958"/>
        <ellipse id="Ellipse_4" data-name="Ellipse 4" class="cls-1" cx="8.57" cy="7.958" rx="8.57" ry="7.958" transform="translate(67.338)"/>
        <circle id="Ellipse_15" data-name="Ellipse 15" class="cls-1" cx="7.958" cy="7.958" r="7.958" transform="translate(135.899)"/>
        <ellipse id="Ellipse_16" data-name="Ellipse 16" class="cls-1" cx="8.57" cy="7.958" rx="8.57" ry="7.958" transform="translate(203.237)"/>
      </g>
      <g id="Group_235" data-name="Group 235" transform="translate(34.281 42.851)">
        <ellipse id="Ellipse_3-2" data-name="Ellipse 3" class="cls-1" cx="7.958" cy="8.57" rx="7.958" ry="8.57"/>
        <circle id="Ellipse_4-2" data-name="Ellipse 4" class="cls-1" cx="8.57" cy="8.57" r="8.57" transform="translate(67.338)"/>
        <circle id="Ellipse_15-2" data-name="Ellipse 15" class="cls-1" cx="8.57" cy="8.57" r="8.57" transform="translate(134.675)"/>
        <ellipse id="Ellipse_16-2" data-name="Ellipse 16" class="cls-1" cx="7.958" cy="8.57" rx="7.958" ry="8.57" transform="translate(203.237)"/>
      </g>
      <g id="Group_236" data-name="Group 236" transform="translate(0 25.711)">
        <circle id="Ellipse_3-3" data-name="Ellipse 3" class="cls-1" cx="8.57" cy="8.57" r="8.57"/>
        <circle id="Ellipse_4-3" data-name="Ellipse 4" class="cls-1" cx="8.57" cy="8.57" r="8.57" transform="translate(67.338)"/>
        <ellipse id="Ellipse_15-3" data-name="Ellipse 15" class="cls-1" cx="7.958" cy="8.57" rx="7.958" ry="8.57" transform="translate(135.899)"/>
        <circle id="Ellipse_16-3" data-name="Ellipse 16" class="cls-1" cx="8.57" cy="8.57" r="8.57" transform="translate(203.237)"/>
      </g>
      <g id="Group_237" data-name="Group 237" transform="translate(34.281)">
        <ellipse id="Ellipse_3-4" data-name="Ellipse 3" class="cls-1" cx="7.958" cy="8.57" rx="7.958" ry="8.57"/>
        <circle id="Ellipse_4-4" data-name="Ellipse 4" class="cls-1" cx="8.57" cy="8.57" r="8.57" transform="translate(67.338)"/>
        <circle id="Ellipse_15-4" data-name="Ellipse 15" class="cls-1" cx="8.57" cy="8.57" r="8.57" transform="translate(134.675)"/>
        <ellipse id="Ellipse_16-4" data-name="Ellipse 16" class="cls-1" cx="7.958" cy="8.57" rx="7.958" ry="8.57" transform="translate(203.237)"/>
      </g>
    </g>
    <g id="Group_239" data-name="Group 239" transform="translate(0 84.478)">
      <g id="Group_234-2" data-name="Group 234" transform="translate(0 67.338)">
        <circle id="Ellipse_3-5" data-name="Ellipse 3" class="cls-1" cx="8.57" cy="8.57" r="8.57"/>
        <circle id="Ellipse_4-5" data-name="Ellipse 4" class="cls-1" cx="8.57" cy="8.57" r="8.57" transform="translate(67.338)"/>
        <ellipse id="Ellipse_15-5" data-name="Ellipse 15" class="cls-1" cx="7.958" cy="8.57" rx="7.958" ry="8.57" transform="translate(135.899)"/>
        <circle id="Ellipse_16-5" data-name="Ellipse 16" class="cls-1" cx="8.57" cy="8.57" r="8.57" transform="translate(203.237)"/>
      </g>
      <g id="Group_235-2" data-name="Group 235" transform="translate(34.281 42.851)">
        <ellipse id="Ellipse_3-6" data-name="Ellipse 3" class="cls-1" cx="7.958" cy="8.57" rx="7.958" ry="8.57"/>
        <circle id="Ellipse_4-6" data-name="Ellipse 4" class="cls-1" cx="8.57" cy="8.57" r="8.57" transform="translate(67.338)"/>
        <circle id="Ellipse_15-6" data-name="Ellipse 15" class="cls-1" cx="8.57" cy="8.57" r="8.57" transform="translate(134.675)"/>
        <ellipse id="Ellipse_16-6" data-name="Ellipse 16" class="cls-1" cx="7.958" cy="8.57" rx="7.958" ry="8.57" transform="translate(203.237)"/>
      </g>
      <g id="Group_236-2" data-name="Group 236" transform="translate(0 25.711)">
        <circle id="Ellipse_3-7" data-name="Ellipse 3" class="cls-1" cx="8.57" cy="8.57" r="8.57"/>
        <circle id="Ellipse_4-7" data-name="Ellipse 4" class="cls-1" cx="8.57" cy="8.57" r="8.57" transform="translate(67.338)"/>
        <ellipse id="Ellipse_15-7" data-name="Ellipse 15" class="cls-1" cx="7.958" cy="8.57" rx="7.958" ry="8.57" transform="translate(135.899)"/>
        <circle id="Ellipse_16-7" data-name="Ellipse 16" class="cls-1" cx="8.57" cy="8.57" r="8.57" transform="translate(203.237)"/>
      </g>
      <g id="Group_237-2" data-name="Group 237" transform="translate(34.281)">
        <ellipse id="Ellipse_3-8" data-name="Ellipse 3" class="cls-1" cx="7.958" cy="8.57" rx="7.958" ry="8.57"/>
        <circle id="Ellipse_4-8" data-name="Ellipse 4" class="cls-1" cx="8.57" cy="8.57" r="8.57" transform="translate(67.338)"/>
        <circle id="Ellipse_15-8" data-name="Ellipse 15" class="cls-1" cx="8.57" cy="8.57" r="8.57" transform="translate(134.675)"/>
        <ellipse id="Ellipse_16-8" data-name="Ellipse 16" class="cls-1" cx="7.958" cy="8.57" rx="7.958" ry="8.57" transform="translate(203.237)"/>
      </g>
    </g>
    <g id="Group_240" data-name="Group 240">
      <g id="Group_234-3" data-name="Group 234" transform="translate(0 67.338)">
        <circle id="Ellipse_3-9" data-name="Ellipse 3" class="cls-1" cx="8.57" cy="8.57" r="8.57"/>
        <circle id="Ellipse_4-9" data-name="Ellipse 4" class="cls-1" cx="8.57" cy="8.57" r="8.57" transform="translate(67.338)"/>
        <ellipse id="Ellipse_15-9" data-name="Ellipse 15" class="cls-1" cx="7.958" cy="8.57" rx="7.958" ry="8.57" transform="translate(135.899)"/>
        <circle id="Ellipse_16-9" data-name="Ellipse 16" class="cls-1" cx="8.57" cy="8.57" r="8.57" transform="translate(203.237)"/>
      </g>
      <g id="Group_235-3" data-name="Group 235" transform="translate(34.281 42.851)">
        <circle id="Ellipse_3-10" data-name="Ellipse 3" class="cls-1" cx="7.958" cy="7.958" r="7.958"/>
        <ellipse id="Ellipse_4-10" data-name="Ellipse 4" class="cls-1" cx="8.57" cy="7.958" rx="8.57" ry="7.958" transform="translate(67.338)"/>
        <ellipse id="Ellipse_15-10" data-name="Ellipse 15" class="cls-1" cx="8.57" cy="7.958" rx="8.57" ry="7.958" transform="translate(134.675)"/>
        <circle id="Ellipse_16-10" data-name="Ellipse 16" class="cls-1" cx="7.958" cy="7.958" r="7.958" transform="translate(203.237)"/>
      </g>
      <g id="Group_236-3" data-name="Group 236" transform="translate(0 25.711)">
        <circle id="Ellipse_3-11" data-name="Ellipse 3" class="cls-1" cx="8.57" cy="8.57" r="8.57"/>
        <circle id="Ellipse_4-11" data-name="Ellipse 4" class="cls-1" cx="8.57" cy="8.57" r="8.57" transform="translate(67.338)"/>
        <ellipse id="Ellipse_15-11" data-name="Ellipse 15" class="cls-1" cx="7.958" cy="8.57" rx="7.958" ry="8.57" transform="translate(135.899)"/>
        <circle id="Ellipse_16-11" data-name="Ellipse 16" class="cls-1" cx="8.57" cy="8.57" r="8.57" transform="translate(203.237)"/>
      </g>
      <g id="Group_237-3" data-name="Group 237" transform="translate(34.281)">
        <ellipse id="Ellipse_3-12" data-name="Ellipse 3" class="cls-1" cx="7.958" cy="8.57" rx="7.958" ry="8.57"/>
        <circle id="Ellipse_4-12" data-name="Ellipse 4" class="cls-1" cx="8.57" cy="8.57" r="8.57" transform="translate(67.338)"/>
        <circle id="Ellipse_15-12" data-name="Ellipse 15" class="cls-1" cx="8.57" cy="8.57" r="8.57" transform="translate(134.675)"/>
        <ellipse id="Ellipse_16-12" data-name="Ellipse 16" class="cls-1" cx="7.958" cy="8.57" rx="7.958" ry="8.57" transform="translate(203.237)"/>
      </g>
    </g>
  </g>
</svg>
